<svg xmlns="http://www.w3.org/2000/svg" width="20.998" height="21" viewBox="0 0 20.998 21">
  <defs>
    <style>
      .cls-1 {
        fill: #ffa039;
      }
    </style>
  </defs>
  <path id="card_师生总人数" class="cls-1" d="M78.623,65.957a4.46,4.46,0,0,1,4.462,4.429,4.364,4.364,0,0,1-1.976,3.67A6.286,6.286,0,0,1,85,79.877v1.265a1.91,1.91,0,0,1-1.912,1.9H81a2.354,2.354,0,0,0,.033-.389V81.1a7.713,7.713,0,0,0-4.771-7.145A5.388,5.388,0,0,0,77.51,66.1,4.583,4.583,0,0,1,78.623,65.957ZM71.759,64a5.453,5.453,0,0,1,5.432,5.444,5.38,5.38,0,0,1-2.407,4.511,7.726,7.726,0,0,1,4.734,7.155v1.556A2.337,2.337,0,0,1,77.191,85H66.327A2.337,2.337,0,0,1,64,82.666V81.11a7.726,7.726,0,0,1,4.734-7.155,5.381,5.381,0,0,1-2.4-4.511A5.45,5.45,0,0,1,71.759,64Z" transform="translate(-64 -64)"/>
</svg>
