<svg xmlns="http://www.w3.org/2000/svg" width="100" height="112.001" viewBox="0 0 100 112.001">
  <g id="PPT文件" transform="translate(0 0.001)">
    <path id="路径_216" data-name="路径 216" d="M4,0H72.857L100,26v82a4,4,0,0,1-4,4H4a4,4,0,0,1-4-4V4A4,4,0,0,1,4,0Z" fill="#d54c28" fill-rule="evenodd"/>
    <path id="路径_217" data-name="路径 217" d="M100,26H77a4,4,0,0,1-4-4V0Z" fill="#a02a0b" fill-rule="evenodd"/>
    <path id="路径_218" data-name="路径 218" d="M79.5,32H52v3H72a3,3,0,0,1,3,3V69a3,3,0,0,1-3,3H52v5.817l15.365,9.221a1.054,1.054,0,0,1,.363,1.406l-.492.892a.964.964,0,0,1-1.347.38L52,81.381V94a1,1,0,0,1-1,1H50a1,1,0,0,1-1-1V81.492L35.012,89.536a1,1,0,0,1-1.365-.368l-.5-.867a1,1,0,0,1,.369-1.366L49,78.031V72H28a3,3,0,0,1-3-3V38a3,3,0,0,1,3-3H49V32H21.5A1.5,1.5,0,0,1,20,30.5v-1A1.5,1.5,0,0,1,21.5,28h58A1.5,1.5,0,0,1,81,29.5v1A1.5,1.5,0,0,1,79.5,32Z" fill="#fdd6be" fill-rule="evenodd"/>
  </g>
</svg>
