<svg id="第三方-腾讯" xmlns="http://www.w3.org/2000/svg" width="30" height="30" viewBox="0 0 30 30">
  <metadata><?xpacket begin="﻿" id="W5M0MpCehiHzreSzNTczkc9d"?>
<x:xmpmeta xmlns:x="adobe:ns:meta/" x:xmptk="Adobe XMP Core 5.6-c142 79.160924, 2017/07/13-01:06:39        ">
   <rdf:RDF xmlns:rdf="http://www.w3.org/1999/02/22-rdf-syntax-ns#">
      <rdf:Description rdf:about=""/>
   </rdf:RDF>
</x:xmpmeta>
                                                                                                    
                                                                                                    
                                                                                                    
                                                                                                    
                                                                                                    
                                                                                                    
                                                                                                    
                                                                                                    
                                                                                                    
                                                                                                    
                                                                                                    
                                                                                                    
                                                                                                    
                                                                                                    
                                                                                                    
                                                                                                    
                                                                                                    
                                                                                                    
                                                                                                    
                                                                                                    
                           
<?xpacket end="w"?></metadata>
<defs>
    <style>
      .cls-1 {
        fill: #4dafea;
      }

      .cls-2 {
        fill: #fff;
        fill-rule: evenodd;
      }
    </style>
  </defs>
  <circle id="椭圆_605" data-name="椭圆 605" class="cls-1" cx="15" cy="15" r="15"/>
  <path id="形状_61" data-name="形状 61" class="cls-2" d="M1259.29,654.192l-0.03-.093-0.02-.121-0.02-.066v-0.273l0.03-.108,0.03-.113,0.04-.12,0.05-.132,0.07-.138,0.1-.138v-0.1l0.01-.091,0.02-.123,0.04-.138,0.04-.15,0.03-.068,0.04-.064,0.04-.072,0.05-.052v-0.342l0.03-.176,0.03-.205,0.06-.244,0.07-.255,0.05-.14,0.05-.152,0.06-.142,0.07-.152,0.07-.167,0.09-.156,0.09-.167,0.11-.166,0.06-.1,0.06-.078,0.12-.176,0.13-.175,0.14-.181,0.16-.176,0.17-.173,0.18-.178,0.21-.192,0.14-.117,0.16-.126,0.17-.112,0.18-.107,0.17-.095,0.2-.079,0.21-.1,0.21-.066,0.2-.07,0.23-.068,0.22-.052,0.24-.044,0.23-.038,0.24-.03,0.23-.032,0.25-.013h0.74l0.25,0.03,0.25,0.029,0.25,0.026,0.24,0.055,0.24,0.052,0.24,0.06,0.25,0.066,0.23,0.081,0.23,0.092,0.23,0.1,0.22,0.106,0.21,0.119,0.21,0.131,0.18,0.122,0.08,0.068,0.09,0.05,0.16,0.138,0.14,0.133,0.14,0.138,0.14,0.152,0.11,0.147,0.13,0.153,0.1,0.163,0.09,0.145,0.1,0.17,0.08,0.147,0.14,0.311,0.07,0.161,0.05,0.149,0.06,0.162,0.05,0.153,0.03,0.131,0.04,0.154,0.08,0.275,0.05,0.241,0.03,0.232,0.03,0.188,0.04,0.285,0.01,0.046,0.03,0.051,0.09,0.147,0.06,0.1,0.06,0.1,0.06,0.111,0.06,0.134,0.04,0.137,0.04,0.15,0.03,0.155,0.02,0.075,0.01,0.094V653.5l-0.01.08v0.1l-0.03.1-0.04.188-0.05.095-0.04.107v0.026l0.02,0.033,0.05,0.078,0.22,0.317,0.17,0.238,0.08,0.158,0.12,0.174,0.09,0.19,0.11,0.2,0.12,0.229,0.12,0.259,0.07,0.158,0.07,0.156,0.05,0.163,0.06,0.147,0.04,0.155,0.04,0.145,0.06,0.283,0.04,0.289,0.03,0.257v0.361l-0.02.129-0.03.221-0.04.2-0.06.18-0.02.074-0.04.088-0.04.062-0.04.076-0.04.048-0.06.062-0.04.05-0.05.042-0.06.026-0.06.026-0.04.014h-0.07l-0.04-.014-0.09-.04-0.03-.026-0.04-.028-0.05-.038-0.04-.043-0.07-.079-0.09-.111-0.07-.115-0.06-.092-0.07-.107-0.09-.19-0.11-.2-0.01-.006h-0.02l-0.04.03-0.02.052-0.04.065-0.08.192-0.1.273-0.14.329-0.1.163-0.11.171-0.13.192-0.14.189-0.07.085-0.08.093-0.19.187,0.01,0.017,0.03,0.027,0.1,0.056,0.4,0.19,0.18,0.1,0.17,0.094,0.16,0.12,0.15,0.123,0.07,0.055,0.06,0.064,0.05,0.074,0.05,0.081,0.02,0.066,0.03,0.08,0.02,0.07,0.01,0.081-0.01.054v0.055l-0.02.057-0.03.052-0.01.04-0.03.05-0.07.1-0.07.078-0.05.059-0.04.044-0.12.08-0.12.069-0.14.067-0.14.064-0.16.062-0.09.026-0.07.02-0.19.043-0.2.041-0.19.04-0.21.034-0.22.009-0.22.026h-0.7l-0.25-.014-0.23-.021-0.25-.034-0.25-.026-0.26-.036-0.25-.062-0.25-.046-0.25-.069-0.25-.089-0.25-.073-0.13-.043-0.12-.04-0.07-.028-0.07-.015h-0.21l-0.24-.017-0.12-.012-0.15-.017-0.1.089-0.14.083-0.18.088-0.21.109-0.12.06-0.13.047-0.28.114-0.16.038-0.16.043-0.23.043-0.14.011-0.15.012-0.15.017-0.19.007h-0.74l-0.42-.007-0.4-.04-0.21-.029-0.2-.028-0.19-.029-0.2-.038-0.18-.057-0.17-.041-0.17-.064-0.15-.059-0.14-.067-0.13-.073-0.12-.088-0.04-.043-0.06-.052-0.04-.046-0.04-.052-0.03-.052-0.03-.052-0.04-.112-0.01-.057-0.02-.064v-0.059l0.02-.067v-0.066l0.01-.067v-0.133l0.01-.071,0.03-.081,0.03-.081,0.05-.1,0.03-.038,0.03-.043,0.08-.093,0.06-.047,0.06-.034,0.05-.042,0.09-.026,0.07-.041,0.08-.042,0.1-.029,0.09-.029,0.12-.024,0.1-.014,0.13-.016,0.13-.01,0.04-.011h0.01l0.02-.015v-0.016l-0.03-.033-0.07-.034-0.18-.154-0.13-.1-0.14-.121-0.14-.135-0.15-.173-0.17-.2-0.06-.106-0.08-.108-0.08-.126-0.06-.138-0.09-.131-0.06-.15-0.07-.149-0.06-.166-0.05-.159-0.05-.2-0.02-.007h-0.01l-0.01-.014h-0.02l-0.02.014-0.02.007-0.02.033-0.01.041-0.01.035-0.03.06-0.08.145-0.04.088-0.07.076-0.07.092-0.08.1-0.09.091-0.1.088-0.09.082-0.1.066-0.11.068-0.11.041-0.13.031-0.12.012h-0.03l-0.03-.012-0.02-.048-0.04-.024-0.04-.114-0.03-.062-0.04-.088-0.02-.092-0.02-.091-0.04-.206-0.01-.122v-0.4l0.01-.3,0.03-.152,0.03-.157,0.02-.168,0.05-.157,0.05-.181,0.06-.176,0.07-.181,0.07-.173,0.09-.175,0.09-.19,0.11-.179,0.12-.192,0.13-.173,0.14-.193,0.11-.134,0.14-.153,0.15-.155,0.07-.074,0.08-.083,0.13-.1,0.12-.107,0.21-.181,0.16-.111Zm0,0" transform="translate(-1250 -640)"/>
</svg>
