<svg xmlns="http://www.w3.org/2000/svg" width="100" height="112.001" viewBox="0 0 100 112.001">
  <g id="TXT文件" transform="translate(0 0.001)">
    <path id="路径_231" data-name="路径 231" d="M4,0H72.857L100,26v82a4,4,0,0,1-4,4H4a4,4,0,0,1-4-4V4A4,4,0,0,1,4,0Z" fill="#ddeaf2" fill-rule="evenodd"/>
    <path id="路径_232" data-name="路径 232" d="M100,26H77a4,4,0,0,1-4-4V0Z" fill="#80a9c4" fill-rule="evenodd"/>
    <path id="路径_233" data-name="路径 233" d="M16,99V95.312H84V99Zm0-15.781H84v3.687H16Zm0-13.938H84v3.688H16Zm0-12.125H84v3.719H16Zm0-12.062H84v3.687H16ZM16,33H84v3.687H16Z" fill="#c7dfee" fill-rule="evenodd"/>
    <path id="路径_234" data-name="路径 234" d="M58,13h9v9H58Z" fill="#fff" fill-rule="evenodd"/>
    <path id="路径_235" data-name="路径 235" d="M44,13h9v9H44Z" fill="#fff" fill-rule="evenodd"/>
    <path id="路径_236" data-name="路径 236" d="M30,13h9v9H30Z" fill="#fff" fill-rule="evenodd"/>
    <path id="路径_237" data-name="路径 237" d="M16,13h9v9H16Z" fill="#fff" fill-rule="evenodd"/>
  </g>
</svg>
