<svg id="第三方-微信" xmlns="http://www.w3.org/2000/svg" width="30" height="30" viewBox="0 0 30 30">
  <metadata><?xpacket begin="﻿" id="W5M0MpCehiHzreSzNTczkc9d"?>
<x:xmpmeta xmlns:x="adobe:ns:meta/" x:xmptk="Adobe XMP Core 5.6-c142 79.160924, 2017/07/13-01:06:39        ">
   <rdf:RDF xmlns:rdf="http://www.w3.org/1999/02/22-rdf-syntax-ns#">
      <rdf:Description rdf:about=""/>
   </rdf:RDF>
</x:xmpmeta>
                                                                                                    
                                                                                                    
                                                                                                    
                                                                                                    
                                                                                                    
                                                                                                    
                                                                                                    
                                                                                                    
                                                                                                    
                                                                                                    
                                                                                                    
                                                                                                    
                                                                                                    
                                                                                                    
                                                                                                    
                                                                                                    
                                                                                                    
                                                                                                    
                                                                                                    
                                                                                                    
                           
<?xpacket end="w"?></metadata>
<defs>
    <style>
      .cls-1 {
        fill: #3eb135;
      }

      .cls-2 {
        fill: #fff;
        fill-rule: evenodd;
      }
    </style>
  </defs>
  <circle id="椭圆_605_拷贝_2" data-name="椭圆 605 拷贝 2" class="cls-1" cx="15" cy="15" r="15"/>
  <path id="形状_59" data-name="形状 59" class="cls-2" d="M1379.92,605.875c-1.48.964,0.72,1.9,0.13,2.1-0.63.212-2.06-.922-3.76-0.958-3.15,0-5.7-2.238-5.7-5s2.55-5,5.7-5,5.71,2.239,5.71,5A4.778,4.778,0,0,1,1379.92,605.875Zm-5.8-5.5a1.033,1.033,0,1,0,1.07,1.033A1.053,1.053,0,0,0,1374.12,600.379Zm4,0a1.033,1.033,0,1,0,1.07,1.033A1.053,1.053,0,0,0,1378.12,600.379Zm-8.76,1.4a5.148,5.148,0,0,0,.75,2.669c-1.75.191-3.21,1.292-3.89,1.066-0.66-.223,1.85-1.3.15-2.4a5.455,5.455,0,0,1-2.37-4.409c0-3.154,2.92-5.712,6.52-5.712a6.687,6.687,0,0,1,5.77,3.057c-0.13-.007-0.25-0.017-0.38-0.017C1372.29,596.04,1369.36,598.612,1369.36,601.784Zm-0.93-4.942a1.18,1.18,0,1,0,1.22,1.179A1.2,1.2,0,0,0,1368.43,596.842Z" transform="translate(-1358 -585)"/>
</svg>
