<svg id="第三方-微博" xmlns="http://www.w3.org/2000/svg" width="30" height="30" viewBox="0 0 30 30">
  <metadata><?xpacket begin="﻿" id="W5M0MpCehiHzreSzNTczkc9d"?>
<x:xmpmeta xmlns:x="adobe:ns:meta/" x:xmptk="Adobe XMP Core 5.6-c142 79.160924, 2017/07/13-01:06:39        ">
   <rdf:RDF xmlns:rdf="http://www.w3.org/1999/02/22-rdf-syntax-ns#">
      <rdf:Description rdf:about=""/>
   </rdf:RDF>
</x:xmpmeta>
                                                                                                    
                                                                                                    
                                                                                                    
                                                                                                    
                                                                                                    
                                                                                                    
                                                                                                    
                                                                                                    
                                                                                                    
                                                                                                    
                                                                                                    
                                                                                                    
                                                                                                    
                                                                                                    
                                                                                                    
                                                                                                    
                                                                                                    
                                                                                                    
                                                                                                    
                                                                                                    
                           
<?xpacket end="w"?></metadata>
<defs>
    <style>
      .cls-1 {
        fill: #df4d69;
      }

      .cls-2 {
        fill: #fff;
        fill-rule: evenodd;
      }
    </style>
  </defs>
  <circle id="椭圆_605_拷贝" data-name="椭圆 605 拷贝" class="cls-1" cx="15" cy="15" r="15"/>
  <path id="形状_60" data-name="形状 60" class="cls-2" d="M1324.5,655.593a1.984,1.984,0,0,1,.62.868,2.881,2.881,0,0,1,.14,1.057,4.3,4.3,0,0,1-.22,1.1,4.084,4.084,0,0,1-.51,1,6.307,6.307,0,0,1-1.24,1.375,8.272,8.272,0,0,1-1.45.946,8.06,8.06,0,0,1-1.5.592,11.422,11.422,0,0,1-1.41.318,11.628,11.628,0,0,1-1.19.129c-0.35.017-.63,0.026-0.82,0.026s-0.46-.014-0.78-0.043a9.1,9.1,0,0,1-1.08-.172,10.629,10.629,0,0,1-1.24-.361,6.757,6.757,0,0,1-1.26-.61,6.485,6.485,0,0,1-1.17-.928,4.843,4.843,0,0,1-.95-1.323,3.293,3.293,0,0,1-.35-1.066,9.492,9.492,0,0,1-.09-1.443,3.6,3.6,0,0,1,.12-0.86,5.137,5.137,0,0,1,.43-1.065,9.733,9.733,0,0,1,.84-1.272,17.214,17.214,0,0,1,1.36-1.512,13.81,13.81,0,0,1,1.68-1.435,7.212,7.212,0,0,1,1.86-.971,3.015,3.015,0,0,1,1-.189,1.684,1.684,0,0,1,.91.189c0.11,0.126.21,0.255,0.31,0.386a1.181,1.181,0,0,1,.19.49,1.213,1.213,0,0,1,.01.464l-0.09.447c-0.03.149-.06,0.292-0.08,0.43a0.789,0.789,0,0,0,.03.378,1.56,1.56,0,0,0,.54-0.026,3.669,3.669,0,0,0,.5-0.155c0.16-.063.32-0.129,0.49-0.2a2.6,2.6,0,0,1,.53-0.155,4.064,4.064,0,0,1,.87-0.077,2.454,2.454,0,0,1,.77.129,1.385,1.385,0,0,1,.58.369,1.123,1.123,0,0,1,.27.645,1.1,1.1,0,0,1-.03.446,3.637,3.637,0,0,1-.14.387,2.383,2.383,0,0,0-.11.37,0.765,0.765,0,0,0,.02.395,0.52,0.52,0,0,0,.24.223,4.365,4.365,0,0,0,.43.207c0.16,0.068.33,0.143,0.51,0.223a2.114,2.114,0,0,1,.46.275h0Zm-4.08,5.345a4.541,4.541,0,0,0,.85-0.756,4.112,4.112,0,0,0,.69-1.075,3.4,3.4,0,0,0,.3-1.271,2.558,2.558,0,0,0-.32-1.367,3.541,3.541,0,0,0-.75-0.962,3.586,3.586,0,0,0-1-.627,5.234,5.234,0,0,0-1.17-.335,7.822,7.822,0,0,0-1.28-.1,8.127,8.127,0,0,0-2.21.275,6.43,6.43,0,0,0-1.67.722,4.352,4.352,0,0,0-1.14,1.014,3.658,3.658,0,0,0-.61,1.152,2.557,2.557,0,0,0-.11,1.125,3.248,3.248,0,0,0,.33,1.057,3.611,3.611,0,0,0,1.59,1.53,6.192,6.192,0,0,0,1.89.541,7.874,7.874,0,0,0,1.84.009,7.243,7.243,0,0,0,1.59-.361,5.243,5.243,0,0,0,1.18-.567h0Zm-2.12-5.431a5.443,5.443,0,0,1,.61.309,1.772,1.772,0,0,1,.52.464,1.958,1.958,0,0,1,.28.516,2.808,2.808,0,0,1,.17.662,3.388,3.388,0,0,1,.03.713,1.928,1.928,0,0,1-.16.653,4.916,4.916,0,0,1-.31.627,3.288,3.288,0,0,1-.46.593,2.705,2.705,0,0,1-.64.49,2.863,2.863,0,0,1-.9.318,3.161,3.161,0,0,1-1.87-.189,2.858,2.858,0,0,1-1.39-1.255,4.817,4.817,0,0,1-.21-1.186,2.572,2.572,0,0,1,.26-1.117,2.717,2.717,0,0,1,.64-0.868,3.35,3.35,0,0,1,.99-0.653,3.479,3.479,0,0,1,1.19-.292,2.743,2.743,0,0,1,1.25.215h0Zm-2.58,4.228a1.014,1.014,0,0,0,.91-0.31,1.223,1.223,0,0,0,.34-0.807,1.148,1.148,0,0,0-.24-0.8,0.835,0.835,0,0,0-.83-0.283,0.925,0.925,0,0,0-.68.395,1.385,1.385,0,0,0-.28.731,1.178,1.178,0,0,0,.16.713,0.724,0.724,0,0,0,.62.361h0ZM1322.35,647a7.16,7.16,0,0,1,2.21.335,5.579,5.579,0,0,1,1.8.971,4.521,4.521,0,0,1,1.2,1.547,4.725,4.725,0,0,1,.44,2.062,1.239,1.239,0,0,1-.26.851,0.785,0.785,0,0,1-.56.292,0.771,0.771,0,0,1-.56-0.241,1.027,1.027,0,0,1-.26-0.764,2.644,2.644,0,0,0-.35-1.306,3.811,3.811,0,0,0-.94-1.083,4.638,4.638,0,0,0-1.34-.731,4.554,4.554,0,0,0-1.53-.266,0.994,0.994,0,0,1-.75-0.258,0.764,0.764,0,0,1-.22-0.576,0.82,0.82,0,0,1,.3-0.575,1.176,1.176,0,0,1,.82-0.258h0Zm0,2.75a3.009,3.009,0,0,1,2.28.816,3.449,3.449,0,0,1,.78,2.466,1.316,1.316,0,0,1-.16.731,0.39,0.39,0,0,1-.36.189,0.555,0.555,0,0,1-.36-0.25,0.989,0.989,0,0,1-.16-0.6,2.283,2.283,0,0,0-.55-1.615,1.9,1.9,0,0,0-1.47-.6,0.56,0.56,0,0,1-.46-0.18,0.586,0.586,0,0,1-.14-0.387,0.594,0.594,0,0,1,.15-0.387,0.552,0.552,0,0,1,.45-0.18h0Zm0,0" transform="translate(-1304 -640)"/>
</svg>
