<svg xmlns="http://www.w3.org/2000/svg" width="14.5" height="16" viewBox="0 0 14.5 16">
  <path id="暂无班级之星" d="M128,14.04a6.26,6.26,0,0,1,4.121-5.679,6.4,6.4,0,0,0,6.257,0A6.26,6.26,0,0,1,142.5,14.04C142.547,16.631,128,16.675,128,14.04Zm10.693-6.816a4.431,4.431,0,0,1-1.566.909,5.693,5.693,0,0,1-3.755,0,5.588,5.588,0,0,1-1.563-.909,3.792,3.792,0,0,1-1.044-1.362,3.463,3.463,0,0,1-.366-1.637,3.72,3.72,0,0,1,.366-1.635A4.79,4.79,0,0,1,131.8,1.226a4.448,4.448,0,0,1,1.564-.908A5.459,5.459,0,0,1,135.246,0a5.214,5.214,0,0,1,1.877.319,5.6,5.6,0,0,1,1.566.908,3.816,3.816,0,0,1,1.042,1.364,3.461,3.461,0,0,1,.366,1.635,3.727,3.727,0,0,1-.366,1.637,3.788,3.788,0,0,1-1.042,1.362Z" transform="translate(-127.996)" fill="#c1c1c1"/>
</svg>
