<svg xmlns="http://www.w3.org/2000/svg" width="12" height="12.781" viewBox="0 0 12 12.781">
  <g id="评论_已评_" data-name="评论（已评）" transform="translate(-64.001 -154.667)">
    <path id="减去_64" data-name="减去 64" d="M9026.188-5072.552h0c-.019-.054-.008-1.725,0-2.715,0-.041,0-.063,0-.066H9024a1,1,0,0,1-1-1v-8a1,1,0,0,1,1-1h10a1,1,0,0,1,1,1v8a1,1,0,0,1-1,1h-4.063c-1.812,2.436-3.313,2.744-3.73,2.78l-.018,0Zm5.384-8.563a.851.851,0,0,0-.851.85.854.854,0,0,0,.851.855.856.856,0,0,0,.854-.855A.854.854,0,0,0,9031.572-5081.116Zm-2.571,0a.853.853,0,0,0-.853.85.855.855,0,0,0,.853.855.855.855,0,0,0,.853-.855A.853.853,0,0,0,9029-5081.116Zm-2.574,0a.853.853,0,0,0-.853.85.855.855,0,0,0,.853.855.856.856,0,0,0,.855-.855A.854.854,0,0,0,9026.427-5081.116Z" transform="translate(-8959 5240)" fill="#09f"/>
  </g>
</svg>
