<svg xmlns="http://www.w3.org/2000/svg" width="16" height="16" viewBox="0 0 16 16">
  <metadata><?xpacket begin="﻿" id="W5M0MpCehiHzreSzNTczkc9d"?>
<x:xmpmeta xmlns:x="adobe:ns:meta/" x:xmptk="Adobe XMP Core 5.6-c142 79.160924, 2017/07/13-01:06:39        ">
   <rdf:RDF xmlns:rdf="http://www.w3.org/1999/02/22-rdf-syntax-ns#">
      <rdf:Description rdf:about=""/>
   </rdf:RDF>
</x:xmpmeta>
                                                                                                    
                                                                                                    
                                                                                                    
                                                                                                    
                                                                                                    
                                                                                                    
                                                                                                    
                                                                                                    
                                                                                                    
                                                                                                    
                                                                                                    
                                                                                                    
                                                                                                    
                                                                                                    
                                                                                                    
                                                                                                    
                                                                                                    
                                                                                                    
                                                                                                    
                                                                                                    
                           
<?xpacket end="w"?></metadata>
<defs>
    <style>
      .cls-1 {
        fill: #bcd5fd;
        fill-rule: evenodd;
      }
    </style>
  </defs>
  <path id="返回教务系统" class="cls-1" d="M840,40H826a1,1,0,0,1-1-1V33a1,1,0,0,1,1-1V27a1,1,0,0,1,1-1h2V25a1,1,0,0,1,1-1h9a1,1,0,0,1,1,1v7a1,1,0,0,1,1,1v6A1,1,0,0,1,840,40ZM828,27.5a0.5,0.5,0,0,0-1,0v4a0.5,0.5,0,0,0,1,0v-4Zm1,8.5V34.5a0.5,0.5,0,1,0-1,0v3a0.5,0.5,0,0,0,1,0V37h8v0.5a0.5,0.5,0,0,0,1,0v-3a0.5,0.5,0,1,0-1,0V36h-8Zm10-10a1,1,0,0,0-1-1h-7a1,1,0,0,0-1,1v5a1,1,0,0,0,1,1h7a1,1,0,0,0,1-1V26Zm-1.5,5h-4a0.5,0.5,0,0,1,0-1h4A0.5,0.5,0,0,1,837.5,31Zm0-2h-4a0.5,0.5,0,0,1,0-1h4A0.5,0.5,0,0,1,837.5,29Zm0-2h-4a0.5,0.5,0,0,1,0-1h4A0.5,0.5,0,0,1,837.5,27Zm-6,4a0.5,0.5,0,1,1,.5-0.5A0.5,0.5,0,0,1,831.5,31Zm0-2a0.5,0.5,0,1,1,.5-0.5A0.5,0.5,0,0,1,831.5,29Zm0-2a0.5,0.5,0,1,1,.5-0.5A0.5,0.5,0,0,1,831.5,27Z" transform="translate(-825 -24)"/>
</svg>
