<svg xmlns="http://www.w3.org/2000/svg" width="20.226" height="16.025" viewBox="0 0 20.226 16.025">
  <g id="抄送" transform="translate(-1732.035 -1615.877)">
    <path id="路径_4179" data-name="路径 4179" d="M-358.672,1641.984s-.391.125-.437-.187c0-.016-.062-2.125-.062-2.125s.016-.344.281-.266c.172.078,1.469.359,1.5.391.281.141,0,.484,0,.484Z" transform="translate(2100.102 -10.107)" fill="#fff"/>
    <path id="路径_4178" data-name="路径 4178" d="M5.967,11.637c-1.053-.326-4.313-1.314-5.306-1.613C-.635,9.633,0,8.567.661,8.37c0,0,13.684-6.2,18.5-8.272,1.278-.468.934.563.934.563L16.686,13.614s-.125.953-1.25.609c-1.317-.363-4.684-1.294-5.565-1.525-1.44-.378-.5-1.042-.5-1.042L16.421,3.82,7.264,11.535S6.946,11.978,5.967,11.637Z" transform="translate(1732.127 1615.902)" fill="#fff"/>
  </g>
</svg>
