<svg xmlns="http://www.w3.org/2000/svg" width="14" height="14" viewBox="0 0 14 14">
  <defs>
    <style>
      .cls-1 {
        fill: #fff;
        fill-rule: evenodd;
      }
    </style>
  </defs>
  <path id="办理离退休" class="cls-1" d="M1092.5,139a3.5,3.5,0,1,1,3.5-3.5A3.5,3.5,0,0,1,1092.5,139Zm0-5a1.5,1.5,0,1,0,1.5,1.5A1.5,1.5,0,0,0,1092.5,134Zm-7,5a3.5,3.5,0,1,1,3.5-3.5A3.5,3.5,0,0,1,1085.5,139Zm0-5a1.5,1.5,0,1,0,1.5,1.5A1.5,1.5,0,0,0,1085.5,134Zm-1.5,10c2,0-.06-3.268,2-4,2.37-.844,3,1,3,1v0.176s0.62-1.779,3-.965c2.06,0.707,0,3.859,2,3.859a2.074,2.074,0,0,0,2-.964s-0.63,2.894-3,2.894c-3.97,0-4-2.894-4-2.894V143s-0.03,3-4,3c-2.38,0-3-3-3-3A2.064,2.064,0,0,0,1084,144Z" transform="translate(-1082 -132)"/>
</svg>
