<svg xmlns="http://www.w3.org/2000/svg" width="14.001" height="13.999" viewBox="0 0 14.001 13.999">
  <g id="组_6308" data-name="组 6308" transform="translate(-1384 -179)">
    <path id="减去_66" data-name="减去 66" d="M7077,4637a7,7,0,1,1,7-7A7.008,7.008,0,0,1,7077,4637Zm.172-4.557a.973.973,0,0,0-.665.236.764.764,0,0,0-.274.6.781.781,0,0,0,.269.592,1.033,1.033,0,0,0,.724.249.853.853,0,0,0,.61-.242.792.792,0,0,0,.254-.6.767.767,0,0,0-.271-.6A.956.956,0,0,0,7077.173,4632.443Zm-.123-4.825a.9.9,0,0,1,.629.222.734.734,0,0,1,.245.569,1.1,1.1,0,0,1-.17.592,3.4,3.4,0,0,1-.654.683,1.921,1.921,0,0,0-.782,1.484,1.885,1.885,0,0,0,.117.654h1.323a1.091,1.091,0,0,1-.132-.512,1.107,1.107,0,0,1,.123-.508,2.65,2.65,0,0,1,.634-.668,3.551,3.551,0,0,0,.878-.962,2.031,2.031,0,0,0,.24-.981,1.69,1.69,0,0,0-.61-1.392,2.611,2.611,0,0,0-1.666-.489,3.564,3.564,0,0,0-1.856.489v1.513A2.488,2.488,0,0,1,7077.051,4627.618Z" transform="translate(-5686 -4444)" fill="#dfdfdf"/>
  </g>
</svg>
