<svg xmlns="http://www.w3.org/2000/svg" width="14.031" height="14" viewBox="0 0 14.031 14">
  <metadata><?xpacket begin="﻿" id="W5M0MpCehiHzreSzNTczkc9d"?>
<x:xmpmeta xmlns:x="adobe:ns:meta/" x:xmptk="Adobe XMP Core 5.6-c142 79.160924, 2017/07/13-01:06:39        ">
   <rdf:RDF xmlns:rdf="http://www.w3.org/1999/02/22-rdf-syntax-ns#">
      <rdf:Description rdf:about=""/>
   </rdf:RDF>
</x:xmpmeta>
                                                                                                    
                                                                                                    
                                                                                                    
                                                                                                    
                                                                                                    
                                                                                                    
                                                                                                    
                                                                                                    
                                                                                                    
                                                                                                    
                                                                                                    
                                                                                                    
                                                                                                    
                                                                                                    
                                                                                                    
                                                                                                    
                                                                                                    
                                                                                                    
                                                                                                    
                                                                                                    
                           
<?xpacket end="w"?></metadata>
<defs>
    <style>
      .cls-1 {
        fill: #fff;
        fill-rule: evenodd;
        opacity: 0.72;
      }
    </style>
  </defs>
  <path id="返回办公平台" class="cls-1" d="M961.636,32H960v6a1,1,0,0,1-1,1h-2.4a0.587,0.587,0,0,0,.4-0.667V33.667A0.587,0.587,0,0,0,956.6,33h-3.2a0.587,0.587,0,0,0-.4.667v4.667a0.587,0.587,0,0,0,.4.667H951a1,1,0,0,1-1-1V32h-1.656a1.03,1.03,0,0,1,0-1.576l5.76-5.122a1.366,1.366,0,0,1,1.772,0l5.76,5.122A1.03,1.03,0,0,1,961.636,32Z" transform="translate(-947.969 -25)"/>
</svg>
