<svg viewBox="0 0 100 112" width="1em" height="1em" aria-hidden="true" focusable="false">
  <path fill="#f80" fill-rule="evenodd" d="M4 0h68.857L100 26v82a4 4 0 0 1-4 4H4a4 4 0 0 1-4-4V4a4 4 0 0 1 4-4" data-name="路径 196"/>
  <path fill="#c56900" fill-rule="evenodd" d="M100 26H77a4 4 0 0 1-4-4V0Z" data-name="路径 197"/>
  <path fill="#ffdcb3" fill-rule="evenodd" d="M32.294 34.662s8.493-6.227 17.836-7.73c0 0 12.1-1.932 21.657 0V74.6s.213 9.664-12.739 9.019c0 0-7.856-2.147-6.37-10.306 0 0 2.973-5.8 12.74-3.865V39.816s-21.446-1.289-28.028 7.73v34.785S36.116 95 19.555 90.061c0 0-9.555-7.73 2.548-12.883a14.46 14.46 0 0 1 10.191 1.288Z" data-name="路径 198"/>
</svg>
