<svg id="音频文件" xmlns="http://www.w3.org/2000/svg" width="100" height="112" viewBox="0 0 100 112">
  <path id="路径_196" data-name="路径 196" d="M4,0H72.857L100,26v82a4,4,0,0,1-4,4H4a4,4,0,0,1-4-4V4A4,4,0,0,1,4,0Z" fill="#f80" fill-rule="evenodd"/>
  <path id="路径_197" data-name="路径 197" d="M100,26H77a4,4,0,0,1-4-4V0Z" fill="#c56900" fill-rule="evenodd"/>
  <path id="路径_198" data-name="路径 198" d="M32.294,34.662s8.493-6.227,17.836-7.73c0,0,12.1-1.932,21.657,0V74.6S72,84.264,59.048,83.619c0,0-7.856-2.147-6.37-10.306,0,0,2.973-5.8,12.74-3.865V39.816s-21.446-1.289-28.028,7.73V82.331S36.116,95,19.555,90.061c0,0-9.555-7.73,2.548-12.883a14.458,14.458,0,0,1,10.191,1.288Z" fill="#ffdcb3" fill-rule="evenodd"/>
</svg>
