<svg xmlns="http://www.w3.org/2000/svg" width="20" height="17.999" viewBox="0 0 20 17.999">
  <g id="组_4709" data-name="组 4709" transform="translate(-768 -238.001)">
    <g id="组_4707" data-name="组 4707" transform="translate(4015 494)">
      <path id="椭圆_400" data-name="椭圆 400" d="M8,1a13.533,13.533,0,0,0-5.256.941C1.685,2.4,1,3.017,1,3.5s.685,1.1,1.744,1.559A13.533,13.533,0,0,0,8,6a13.533,13.533,0,0,0,5.256-.941C14.315,4.6,15,3.983,15,3.5s-.685-1.1-1.744-1.559A13.533,13.533,0,0,0,8,1M8,0c4.418,0,8,1.567,8,3.5S12.418,7,8,7,0,5.433,0,3.5,3.582,0,8,0Z" transform="translate(-3247 -245)" fill="#17191c"/>
      <path id="椭圆_401" data-name="椭圆 401" d="M4,1A3,3,0,1,0,7,4,3,3,0,0,0,4,1M4,0A4,4,0,1,1,0,4,4,4,0,0,1,4,0Z" transform="translate(-3243 -254)" fill="#17191c"/>
    </g>
    <path id="减去_325" data-name="减去 325" d="M5521.986,52.822v0c.01-.1.015-.213.015-.321a3.569,3.569,0,0,0-.086-.775c.69-.408,1.085-.854,1.085-1.224,0-.484-.685-1.1-1.745-1.558a11.171,11.171,0,0,0-2.851-.772,12.34,12.34,0,0,0-1.614-.56,6.119,6.119,0,0,0,.383-.571,13.048,13.048,0,0,1,4.861,1.165c1.267.636,1.965,1.452,1.965,2.3s-.715,1.681-2.013,2.321Zm-4.195-7.245v0a5.979,5.979,0,0,0,.205-1.337,3,3,0,0,0-2.594-5.178,6,6,0,0,0-1.19-.638A3.956,3.956,0,0,1,5516,38a4,4,0,0,1,1.793,7.576Z" transform="translate(-4736 200)" fill="#17191c"/>
  </g>
</svg>
