<svg xmlns="http://www.w3.org/2000/svg" width="15" height="14" viewBox="0 0 15 14">
  <metadata><?xpacket begin="﻿" id="W5M0MpCehiHzreSzNTczkc9d"?>
<x:xmpmeta xmlns:x="adobe:ns:meta/" x:xmptk="Adobe XMP Core 5.6-c142 79.160924, 2017/07/13-01:06:39        ">
   <rdf:RDF xmlns:rdf="http://www.w3.org/1999/02/22-rdf-syntax-ns#">
      <rdf:Description rdf:about=""/>
   </rdf:RDF>
</x:xmpmeta>
                                                                                                    
                                                                                                    
                                                                                                    
                                                                                                    
                                                                                                    
                                                                                                    
                                                                                                    
                                                                                                    
                                                                                                    
                                                                                                    
                                                                                                    
                                                                                                    
                                                                                                    
                                                                                                    
                                                                                                    
                                                                                                    
                                                                                                    
                                                                                                    
                                                                                                    
                                                                                                    
                           
<?xpacket end="w"?></metadata>
<defs>
    <style>
      .cls-1 {
        fill: #09f;
        fill-rule: evenodd;
      }
    </style>
  </defs>
  <path id="教师管理" class="cls-1" d="M181,39V38a4,4,0,0,0-4-4h-3a4,4,0,0,0-4,4v1h-2V38a5.98,5.98,0,0,1,4.047-5.647,4.5,4.5,0,1,1,6.906,0A5.98,5.98,0,0,1,183,38v1h-2Zm-5.5-12a2.5,2.5,0,1,0,2.5,2.5A2.5,2.5,0,0,0,175.5,27Zm0,8a1.5,1.5,0,0,1,1.5,1.5v1a1.5,1.5,0,0,1-3,0v-1A1.5,1.5,0,0,1,175.5,35Z" transform="translate(-168 -25)"/>
</svg>
