<svg xmlns="http://www.w3.org/2000/svg" width="18" height="18" viewBox="0 0 18 18">
  <g id="组_4692" data-name="组 4692" transform="translate(-797 -644)">
    <path id="椭圆_402" data-name="椭圆 402" d="M3,1A2,2,0,1,0,5,3,2,2,0,0,0,3,1M3,0A3,3,0,1,1,0,3,3,3,0,0,1,3,0Z" transform="translate(803 644)" fill="#17191c"/>
    <path id="矩形_8365" data-name="矩形 8365" d="M.5,0h17a.5.5,0,0,1,0,1H.5a.5.5,0,0,1,0-1Z" transform="translate(797 657)" fill="#17191c"/>
    <path id="矩形_8366" data-name="矩形 8366" d="M1,1V4H13V1H1M1,0H13a1,1,0,0,1,1,1V4a1,1,0,0,1-1,1H1A1,1,0,0,1,0,4V1A1,1,0,0,1,1,0Z" transform="translate(799 657)" fill="#17191c"/>
    <path id="路径_4262" data-name="路径 4262" d="M4.028,1a1.926,1.926,0,0,0-1.64,1.418L1.343,6H12.666L11.621,2.417A1.924,1.924,0,0,0,9.981,1H4.028m0-1H9.981a2.9,2.9,0,0,1,2.6,2.138L14,7H.01L1.428,2.138A2.9,2.9,0,0,1,4.028,0Z" transform="translate(798.99 651)" fill="#17191c"/>
    <path id="联合_412" data-name="联合 412" d="M276.614,5.112a.5.5,0,0,1-.48-.378L275.1.8a.51.51,0,0,1,.352-.623.5.5,0,0,1,.609.36L277.1,4.471a.51.51,0,0,1-.352.623A.487.487,0,0,1,276.614,5.112Zm-7-.045a.49.49,0,0,1-.129-.017.51.51,0,0,1-.352-.623L270.16.49a.5.5,0,0,1,.609-.36.51.51,0,0,1,.352.623l-1.03,3.936A.5.5,0,0,1,269.611,5.067Z" transform="translate(532.887 652.888)" fill="#17191c"/>
  </g>
</svg>
