<svg xmlns="http://www.w3.org/2000/svg" width="16" height="16" viewBox="0 0 16 16">
  <g id="组_4689" data-name="组 4689" transform="translate(3247 254)">
    <path id="椭圆_400" data-name="椭圆 400" d="M8,1a13.533,13.533,0,0,0-5.256.941C1.685,2.4,1,3.017,1,3.5s.685,1.1,1.744,1.559A13.533,13.533,0,0,0,8,6a13.533,13.533,0,0,0,5.256-.941C14.315,4.6,15,3.983,15,3.5s-.685-1.1-1.744-1.559A13.533,13.533,0,0,0,8,1M8,0c4.418,0,8,1.567,8,3.5S12.418,7,8,7,0,5.433,0,3.5,3.582,0,8,0Z" transform="translate(-3247 -245)" fill="#17191c"/>
    <path id="椭圆_401" data-name="椭圆 401" d="M4,1A3,3,0,1,0,7,4,3,3,0,0,0,4,1M4,0A4,4,0,1,1,0,4,4,4,0,0,1,4,0Z" transform="translate(-3243 -254)" fill="#17191c"/>
  </g>
</svg>
