<svg xmlns="http://www.w3.org/2000/svg" width="11.969" height="10.031" viewBox="0 0 11.969 10.031">
  <metadata><?xpacket begin="﻿" id="W5M0MpCehiHzreSzNTczkc9d"?>
<x:xmpmeta xmlns:x="adobe:ns:meta/" x:xmptk="Adobe XMP Core 5.6-c142 79.160924, 2017/07/13-01:06:39        ">
   <rdf:RDF xmlns:rdf="http://www.w3.org/1999/02/22-rdf-syntax-ns#">
      <rdf:Description rdf:about=""/>
   </rdf:RDF>
</x:xmpmeta>
                                                                                                    
                                                                                                    
                                                                                                    
                                                                                                    
                                                                                                    
                                                                                                    
                                                                                                    
                                                                                                    
                                                                                                    
                                                                                                    
                                                                                                    
                                                                                                    
                                                                                                    
                                                                                                    
                                                                                                    
                                                                                                    
                                                                                                    
                                                                                                    
                                                                                                    
                                                                                                    
                           
<?xpacket end="w"?></metadata>
<defs>
    <style>
      .cls-1 {
        fill: #fff;
        fill-rule: evenodd;
        opacity: 0.56;
      }
    </style>
  </defs>
  <path id="圆角矩形_28" data-name="圆角矩形 28" class="cls-1" d="M75,871H67.344l2.528,2.53a1.012,1.012,0,0,1-1.321,1.322l-3.967-3.97a0.992,0.992,0,0,1-.435-0.435l0,0a0.022,0.022,0,0,1,0,0,0.8,0.8,0,0,1-.038-0.071,0.586,0.586,0,0,1-.058-0.478c0-.008.005-0.014,0.006-0.022a0.512,0.512,0,0,1,.057-0.209,0.982,0.982,0,0,1,.56-0.62l3.884-3.925a0.817,0.817,0,0,1,1.1.221,0.838,0.838,0,0,1,.219,1.107l-2.5,2.527H75a1,1,0,0,1,1,1V870A1,1,0,0,1,75,871Z" transform="translate(-64.031 -864.969)"/>
</svg>
