<svg xmlns="http://www.w3.org/2000/svg" width="16" height="14" viewBox="0 0 16 14">
  <g id="组_4557" data-name="组 4557" transform="translate(3383 253)">
    <path id="路径_4255" data-name="路径 4255" d="M65.75,65a.694.694,0,0,0-.75.615v8.615a.694.694,0,0,0,.75.615h2.333A2.816,2.816,0,0,1,70,75.588v-8.9A1.817,1.817,0,0,0,68.083,65H65.75m0-1h2.333A2.812,2.812,0,0,1,71,66.692V77.462a.585.585,0,0,1-1.167,0,1.684,1.684,0,0,0-1.75-1.615H65.75A1.684,1.684,0,0,1,64,74.231V65.615A1.684,1.684,0,0,1,65.75,64Z" transform="translate(-3447 -317)" fill="#17191c"/>
    <path id="路径_4256" data-name="路径 4256" d="M66.917,65A1.817,1.817,0,0,0,65,66.692v8.9a2.815,2.815,0,0,1,1.917-.742H69.25a.694.694,0,0,0,.75-.615V65.615A.694.694,0,0,0,69.25,65H66.917m0-1H69.25A1.684,1.684,0,0,1,71,65.615v8.615a1.684,1.684,0,0,1-1.75,1.615H66.917a1.684,1.684,0,0,0-1.75,1.615.585.585,0,0,1-1.167,0V66.692A2.812,2.812,0,0,1,66.917,64Z" transform="translate(-3438 -317)" fill="#17191c"/>
  </g>
</svg>
