<svg id="日历" xmlns="http://www.w3.org/2000/svg" width="16" height="16" viewBox="0 0 16 16">
  <path id="路径_4096" data-name="路径 4096" d="M0,0H16V16H0Z" fill="none"/>
  <path id="路径_4097" data-name="路径 4097" d="M12.018,2.336H14.69A.668.668,0,0,1,15.358,3V13.69a.668.668,0,0,1-.668.668H2.668A.668.668,0,0,1,2,13.69V3a.668.668,0,0,1,.668-.668H5.339V1H6.675V2.336h4.007V1h1.336ZM10.683,3.672H6.675V5.007H5.339V3.672h-2V6.343H14.022V3.672h-2V5.007H10.683Zm3.339,4.007H3.336v5.343H14.022Zm-9.351,2H6.007v1.336H4.672Zm2.672,0h5.343v1.336H7.343Z" transform="translate(-0.679 -0.339)" fill="#9db1da"/>
</svg>
