<svg xmlns="http://www.w3.org/2000/svg" width="14" height="13" viewBox="0 0 14 13">
  <defs>
    <style>
      .cls-1 {
        fill: #fff;
        fill-rule: evenodd;
      }
    </style>
  </defs>
  <path id="办理延聘" class="cls-1" d="M1104,138v1h1a1,1,0,0,1,0,2h-2a1,1,0,0,1-1-1v-2A1,1,0,0,1,1104,138Zm-0.5,8a6.479,6.479,0,0,1-6.45-6h-1.04l1.13-1.7c0.03-.14.05-0.283,0.09-0.421l0.11,0.116,0.66-.986,1.99,2.992h-0.93a4.506,4.506,0,1,0,2.88-4.707l-1.49-1.5a6.387,6.387,0,0,1,3.05-.8A6.5,6.5,0,0,1,1103.5,146Z" transform="translate(-1096 -133)"/>
</svg>
